<?xml version="1.0" standalone="no"?>
<!DOCTYPE svg PUBLIC "-//W3C//DTD SVG 20010904//EN"
 "http://www.w3.org/TR/2001/REC-SVG-20010904/DTD/svg10.dtd">
<svg version="1.0" xmlns="http://www.w3.org/2000/svg" width="471.000000pt" height="471.000000pt" viewBox="0 0 471.000000 471.000000" preserveAspectRatio="xMidYMid meet">
<metadata>
Created by potrace 1.14, written by Peter Selinger 2001-2017
</metadata>
<g transform="translate(0.000000,471.000000) scale(0.100000,-0.100000)" fill="#000000" stroke="none">
<path d="M3256 4691 c-4 -6 -21 -11 -39 -11 -40 0 -122 -7 -122 -10 0 -2 -9
-4 -20 -5 -11 -1 -42 -5 -70 -9 -53 -6 -101 -14 -125 -21 -8 -2 -31 -7 -50
-10 -19 -3 -42 -8 -50 -10 -25 -7 -84 -18 -102 -19 -10 0 -18 -5 -18 -10 0 -5
-2 -7 -5 -4 -3 3 -36 -3 -73 -14 -37 -11 -74 -21 -82 -23 -8 -1 -35 -9 -60
-16 -25 -7 -48 -13 -52 -15 -5 -1 -10 -3 -13 -4 -3 -1 -9 -4 -15 -5 -5 -1 -13
-4 -17 -5 -5 -1 -11 -2 -15 -1 -5 0 -8 -3 -8 -7 0 -4 -8 -9 -17 -10 -28 -3
-46 -8 -73 -19 -14 -6 -50 -21 -80 -32 -30 -11 -68 -26 -85 -32 -16 -7 -33
-12 -37 -11 -5 1 -8 -2 -8 -6 0 -5 -6 -9 -12 -9 -27 -1 -107 -43 -117 -61 -7
-13 -25 -21 -57 -25 -26 -2 -50 -10 -54 -17 -4 -6 -9 -10 -12 -8 -5 4 -102
-45 -106 -54 -2 -5 -10 -8 -18 -8 -7 0 -23 -8 -34 -17 -11 -10 -24 -18 -28
-19 -18 -1 -62 -28 -62 -37 0 -6 -3 -7 -6 -4 -4 4 -14 -1 -23 -11 -9 -9 -22
-18 -28 -19 -16 -4 -111 -70 -136 -95 -10 -10 -22 -18 -26 -18 -9 0 -42 -27
-103 -82 -17 -16 -34 -28 -38 -28 -5 0 -11 -9 -15 -20 -3 -11 -12 -19 -18 -17
-7 1 -11 -4 -9 -10 1 -7 -2 -13 -8 -13 -14 0 -50 -37 -50 -52 0 -6 -3 -8 -6
-5 -4 4 -16 -3 -26 -16 -54 -62 -100 -107 -110 -107 -6 0 -8 -3 -5 -6 3 -4 -8
-21 -26 -39 -42 -42 -77 -84 -77 -90 0 -3 -9 -16 -20 -28 -39 -41 -70 -82 -70
-90 0 -5 -6 -15 -13 -22 -30 -34 -35 -43 -30 -49 4 -3 2 -6 -4 -6 -6 0 -16
-13 -23 -30 -7 -16 -17 -30 -22 -30 -5 0 -7 -4 -3 -9 3 -5 -2 -17 -11 -25 -8
-9 -13 -16 -9 -16 3 0 -2 -12 -13 -27 -10 -16 -29 -50 -42 -78 -61 -133 -70
-155 -70 -160 0 -3 -7 -19 -15 -35 -9 -17 -13 -30 -10 -30 3 0 -1 -10 -9 -22
-8 -13 -24 -57 -37 -98 -12 -41 -26 -79 -30 -85 -4 -5 -13 -36 -20 -67 -8 -32
-17 -58 -22 -58 -4 0 -6 -4 -3 -8 3 -5 -1 -30 -9 -56 -8 -27 -13 -52 -10 -56
3 -5 1 -10 -4 -12 -6 -1 -12 -16 -15 -33 -2 -16 -5 -30 -6 -30 -2 0 -5 -17
-15 -80 -4 -22 -11 -45 -16 -51 -5 -6 -7 -20 -5 -31 3 -11 -2 -32 -9 -47 -8
-14 -9 -26 -4 -26 6 0 5 -9 -2 -22 -7 -13 -11 -25 -10 -28 1 -3 0 -25 -4 -50
-4 -25 -8 -60 -11 -77 -2 -18 -7 -50 -10 -70 -9 -64 -15 -134 -17 -225 -1 -49
-5 -88 -8 -88 -8 0 -3 -349 6 -450 4 -47 8 -93 7 -102 0 -10 2 -18 6 -18 4 0
8 -21 10 -48 1 -26 4 -56 7 -67 5 -24 21 -100 29 -135 14 -60 70 -222 81 -233
6 -7 10 -18 7 -25 -2 -6 1 -12 7 -12 6 0 11 -9 11 -20 0 -11 5 -20 11 -20 5 0
7 -4 4 -10 -3 -5 -2 -10 2 -10 5 0 17 -16 27 -35 11 -19 23 -35 28 -35 4 0 8
-4 8 -10 0 -11 195 -206 249 -249 62 -49 104 -61 216 -61 56 0 105 3 109 8 4
4 11 8 14 8 29 6 52 18 52 27 0 6 3 8 6 4 12 -12 122 79 247 206 70 71 127
134 127 139 0 5 4 7 9 3 5 -3 12 3 15 12 3 10 19 32 36 50 16 18 30 36 30 41
0 5 9 17 20 27 11 10 20 24 20 32 0 7 4 13 9 13 5 0 13 10 17 22 3 12 15 31
25 42 11 11 19 25 19 32 0 7 6 19 12 26 7 8 28 45 47 83 18 39 42 87 52 108
11 21 19 44 19 52 0 8 4 15 9 15 8 0 23 44 22 67 0 5 7 15 15 24 8 9 11 19 7
22 -3 4 -1 7 5 7 7 0 11 3 11 8 -3 14 14 72 20 72 4 0 7 8 8 18 1 9 7 31 14
47 7 17 11 36 10 43 -1 6 2 12 6 12 8 0 12 15 15 58 1 6 6 12 11 12 5 0 7 7 4
15 -4 8 -2 17 4 20 5 4 7 10 4 15 -3 5 -1 11 5 15 6 4 8 11 5 16 -4 5 -3 15 2
22 4 6 8 17 10 22 10 45 13 59 17 73 3 9 8 28 10 42 9 42 25 114 31 140 3 14
7 34 9 45 2 11 6 40 10 65 4 25 9 52 10 60 9 47 19 118 21 135 2 32 15 65 26
65 5 0 9 7 9 15 0 8 4 15 8 15 4 0 15 12 24 28 9 15 25 37 35 49 10 12 27 33
37 48 11 14 28 36 38 48 11 12 28 32 39 45 10 12 19 24 19 26 0 11 134 150
290 301 14 13 47 31 74 40 46 16 61 20 115 31 13 3 32 9 42 15 10 5 29 10 43
11 15 1 26 5 26 8 0 3 21 11 48 18 40 11 145 48 217 77 11 5 22 9 25 10 13 4
50 20 109 47 35 15 66 26 69 24 7 -8 30 18 24 28 -3 5 2 7 11 3 11 -4 17 -1
17 8 0 8 11 17 25 20 14 3 37 8 52 11 15 3 39 14 55 25 15 11 28 17 28 14 0
-4 7 1 16 9 8 9 24 16 35 16 11 0 22 7 25 15 4 8 12 15 20 15 8 0 14 5 14 12
0 6 3 9 6 5 4 -3 33 12 65 33 32 22 63 40 68 40 6 0 11 5 11 10 0 6 7 10 15
10 8 0 15 3 15 8 0 4 18 18 40 32 22 14 40 28 40 32 0 5 5 8 10 8 6 0 24 12
42 28 113 99 221 202 212 202 -3 0 16 18 41 40 25 22 44 40 42 40 -2 0 22 28
55 61 32 34 57 64 54 66 -3 3 6 14 19 25 14 11 23 24 20 29 -4 5 -2 9 3 9 5 0
20 21 33 48 13 26 28 50 34 54 5 4 7 8 3 8 -4 0 0 17 9 38 27 64 24 239 -6
262 -3 3 -13 18 -21 33 -18 36 -143 167 -159 167 -7 0 -9 5 -6 10 3 6 -4 14
-17 19 -13 6 -20 10 -15 10 4 1 -7 13 -24 29 -17 15 -40 35 -50 45 -10 9 -22
17 -25 17 -3 0 -19 9 -35 21 -16 11 -29 18 -29 14 0 -3 -20 6 -45 19 -25 14
-45 23 -45 21 0 -3 -16 2 -36 10 -20 8 -46 17 -58 19 -11 3 -53 11 -92 20 -39
8 -79 15 -90 15 -50 1 -134 10 -143 15 -5 4 -12 2 -16 -4 -4 -6 -13 -7 -23 -2
-17 9 -257 8 -297 -1 -11 -2 -23 0 -26 5 -4 6 -9 6 -13 -1z"></path>
</g>
</svg>
